<svg width="69" height="48" viewBox="0 0 69 48" fill="none" xmlns="http://www.w3.org/2000/svg">
<path d="M45.6202 47.1226H0V0.529785H45.6202V16.4713H43.5054V2.68973H2.11264V44.9626H43.5054V31.0769H45.6202V47.1226Z" fill="white"/>
<path d="M9.31934 19.0415H11.4386V23.1666L14.4713 19.0415H17.014L13.5314 23.4112L17.2911 28.5099H14.6043L11.4386 24.0044V28.5099H9.31934V19.0415Z" fill="white"/>
<path d="M22.8179 26.5581C24.5271 26.5581 25.4139 25.3242 25.4139 23.7755C25.4139 22.0955 24.27 20.9929 22.8179 20.9929C21.3282 20.9929 20.2242 22.0955 20.2242 23.7755C20.2242 25.3491 21.3792 26.5581 22.8179 26.5581ZM22.8179 19.0254C25.5558 19.0254 27.5997 20.848 27.5997 23.7755C27.5997 26.5581 25.5558 28.5257 22.8179 28.5257C20.0823 28.5257 18.0383 26.7008 18.0383 23.7755C18.0383 21.1107 19.9537 19.0254 22.8179 19.0254Z" fill="white"/>
<path d="M36.511 28.5092L32.115 22.8286V28.5092H30.1265V19.043H31.8224L36.2206 24.7485L36.2162 19.043H38.2025L38.2069 28.5092H36.511Z" fill="white"/>
<path d="M40.7568 19.0415H48.4382V21.0701H45.6561V28.5099H43.5368V21.0701H40.7568V19.0415Z" fill="white"/>
<path d="M58.7173 24.4364C58.7173 27.3298 56.9172 28.5072 54.9309 28.5072C52.5478 28.5072 50.8918 27.1148 50.8918 24.3413V19.0457H53.0111V23.8817C53.0111 25.3556 53.4479 26.4786 54.9309 26.4786C56.2145 26.4786 56.598 25.5186 56.598 24.0039V19.0457H58.7173V24.4364Z" fill="white"/>
<path d="M63.3842 21.1014V23.1979H64.1512C64.9604 23.1979 65.5944 22.8991 65.5944 22.1021C65.5944 21.5746 65.3328 21.0992 64.3131 21.0992C63.9938 21.0992 63.8209 21.0878 63.3842 21.1014ZM61.2649 28.5072V19.0457C61.7814 19.0457 64.1512 19.0457 64.4172 19.0457C66.9467 19.0457 67.8467 20.3294 67.8467 22.075C67.8467 23.8319 66.7871 24.5496 66.2838 24.8077L68.964 28.5072H66.3947L64.1645 25.2265H63.3842V28.5072H61.2649Z" fill="white"/>
</svg>
