<svg width="98" height="26" viewBox="0 0 98 26" fill="none" xmlns="http://www.w3.org/2000/svg">
<path d="M20.6546 2.87127H18.5498V26H15.2757L5.82088 6.19475V23.6939H7.99247V26H0.976562V23.6939H3.08134V2.87127H0.976562V0.565186H6.12156L15.8102 20.7774V2.87127H13.6387V0.565186H20.6546V2.87127Z" fill="white"/>
<path d="M28.1631 23.6939H30.2678V2.87127H26.0583V6.87301H23.6528V0.565186H39.6558V6.87301H37.2169V2.87127H33.0074V23.6939H35.179V26H28.1631V23.6939ZM54.4993 9.28084V16.4026H52.2275V13.9948H47.5168V23.6939H56.0696V19.7261H58.3414V26H42.6725V23.6939H44.7773V2.87127H42.6725V0.565186H58.3414V6.8391H56.0696V2.87127H47.5168V11.6887H52.2275V9.28084H54.4993ZM71.9123 19.7261H74.1841V26H63.9275C62.0566 26 60.9207 25.2539 60.5198 23.7617C60.3861 23.3321 60.3193 22.8687 60.3193 22.3713V4.2278C60.3193 2.57736 60.8873 1.46954 62.0232 0.904318C62.4464 0.67823 62.9698 0.565186 63.5934 0.565186H74.1841V6.8391H71.9123V2.87127H63.0589V23.6939H71.9123V19.7261ZM94.9107 2.87127V23.6939H97.0155V26H90.1332V23.6939H92.1712V13.9948H82.8835V23.6939H84.9214V26H78.0392V23.6939H80.1439V2.87127H78.0392V0.565186H84.9214V2.87127H82.8835V11.7226H92.1712V2.87127H90.1332V0.565186H97.0155V2.87127H94.9107Z" fill="white"/>
</svg>
